<svg xmlns="http://www.w3.org/2000/svg" viewBox="0 0 128 128" role="img" aria-label="Notificaciones pendientes">
  <defs>
    <linearGradient id="bgActive" x1="0%" y1="0%" x2="100%" y2="100%">
      <stop offset="0%" stop-color="#3f5f93" />
      <stop offset="100%" stop-color="#142544" />
    </linearGradient>
    <linearGradient id="bellActive" x1="0%" y1="0%" x2="100%" y2="100%">
      <stop offset="0%" stop-color="#eef4ff" />
      <stop offset="100%" stop-color="#c8d6f6" />
    </linearGradient>
  </defs>
  <rect x="0" y="0" width="128" height="128" rx="24" fill="url(#bgActive)" />
  <path
    fill="url(#bellActive)"
    d="M64 28c-4.8 0-8.8 3.8-9 8.6C44.4 40.4 37 50.2 37 61.7V78c0 3.3-1.3 6.4-3.7 8.8l-2.8 2.8c-1.7 1.7-.5 4.7 1.9 4.7h63.2c2.4 0 3.6-2.9 1.9-4.7l-2.8-2.8C92.3 84.4 91 81.3 91 78V61.7c0-11.5-7.4-21.3-18-25.1-.2-4.8-4.2-8.6-9-8.6Zm-11.2 71c1.8 5.3 6.2 8.5 11.2 8.5 5 0 9.4-3.2 11.2-8.5H52.8Z"
  />
  <circle cx="93" cy="34" r="15" fill="#ff3341" />
</svg>
